<svg xmlns="http://www.w3.org/2000/svg" width="26.25" height="20" viewBox="0 0 26.25 20">
  <path id="discord" d="M48.256,33.688a.067.067,0,0,0-.034-.031A21.655,21.655,0,0,0,42.879,32a.081.081,0,0,0-.086.041,15.063,15.063,0,0,0-.665,1.366,19.994,19.994,0,0,0-6,0,13.82,13.82,0,0,0-.676-1.366A.084.084,0,0,0,35.365,32a21.594,21.594,0,0,0-5.343,1.657.076.076,0,0,0-.035.03,22.138,22.138,0,0,0-3.878,14.935.09.09,0,0,0,.034.061A21.771,21.771,0,0,0,32.7,52a.085.085,0,0,0,.092-.03,15.545,15.545,0,0,0,1.341-2.18.083.083,0,0,0-.045-.116,14.338,14.338,0,0,1-2.048-.976.084.084,0,0,1-.008-.14c.138-.1.275-.21.407-.319a.081.081,0,0,1,.085-.011,15.529,15.529,0,0,0,13.192,0,.081.081,0,0,1,.086.01c.131.108.269.217.408.32a.084.084,0,0,1-.007.14,13.456,13.456,0,0,1-2.049.975.084.084,0,0,0-.045.117,17.459,17.459,0,0,0,1.34,2.179.083.083,0,0,0,.092.031A21.7,21.7,0,0,0,52.1,48.684a.084.084,0,0,0,.034-.06A21.992,21.992,0,0,0,48.256,33.688ZM34.772,45.641a2.662,2.662,0,0,1,0-5.289,2.662,2.662,0,0,1,0,5.289Zm8.722,0a2.662,2.662,0,0,1,0-5.289,2.662,2.662,0,0,1,0,5.289Z" transform="translate(-26 -31.999)" fill="#ff0ddf"/>
</svg>