<svg xmlns="http://www.w3.org/2000/svg" width="27" height="19" viewBox="0 0 27 19">
  <g id="Group_139" data-name="Group 139" transform="translate(-12.5 5697)">
    <path id="Line_1" data-name="Line 1" d="M24,1.5H0A1.5,1.5,0,0,1-1.5,0,1.5,1.5,0,0,1,0-1.5H24A1.5,1.5,0,0,1,25.5,0,1.5,1.5,0,0,1,24,1.5Z" transform="translate(14 -5695.5)" fill="#fff"/>
    <path id="Line_2" data-name="Line 2" d="M24,1.5H0A1.5,1.5,0,0,1-1.5,0,1.5,1.5,0,0,1,0-1.5H24A1.5,1.5,0,0,1,25.5,0,1.5,1.5,0,0,1,24,1.5Z" transform="translate(14 -5679.5)" fill="#fff"/>
    <path id="Line_3" data-name="Line 3" d="M24,1.5H0A1.5,1.5,0,0,1-1.5,0,1.5,1.5,0,0,1,0-1.5H24A1.5,1.5,0,0,1,25.5,0,1.5,1.5,0,0,1,24,1.5Z" transform="translate(14 -5687.5)" fill="#fff"/>
  </g>
</svg>
