<svg xmlns="http://www.w3.org/2000/svg" xmlns:xlink="http://www.w3.org/1999/xlink" viewBox="0 0 741 741"><defs><style>.cls-1{fill:url(#linear-gradient);}.cls-2{fill:#fff;}.cls-3{fill:url(#linear-gradient-2);}.cls-4{fill:url(#linear-gradient-3);}.cls-5{fill:url(#linear-gradient-4);}.cls-6{fill:url(#linear-gradient-5);}.cls-7{fill:url(#linear-gradient-6);}</style><linearGradient id="linear-gradient" x1="684.08" y1="189.46" x2="56.92" y2="551.54" gradientUnits="userSpaceOnUse"><stop offset="0" stop-color="#fff"/><stop offset="1" stop-color="#999"/></linearGradient><linearGradient id="linear-gradient-2" x1="221.47" y1="2177.05" x2="286.4" y2="1999.18" gradientTransform="matrix(1, 0, 0, -1, 0, 2598)" gradientUnits="userSpaceOnUse"><stop offset="0" stop-color="#00cbfa"/><stop offset="0.31" stop-color="#00a1e5"/><stop offset="0.59" stop-color="#0082d6"/><stop offset="0.83" stop-color="#006fcc"/><stop offset="1" stop-color="#0068c9"/></linearGradient><linearGradient id="linear-gradient-3" x1="295.86" y1="2271.4" x2="252.35" y2="2453.52" gradientTransform="matrix(1, 0, 0, -1, 0, 2598)" gradientUnits="userSpaceOnUse"><stop offset="0" stop-color="#00cbfa"/><stop offset="0.13" stop-color="#00bdf3"/><stop offset="0.72" stop-color="#0080d5"/><stop offset="1" stop-color="#0068c9"/></linearGradient><linearGradient id="linear-gradient-4" x1="344.48" y1="2440.2" x2="460.96" y2="2351.83" gradientTransform="matrix(1, 0, 0, -1, 0, 2598)" gradientUnits="userSpaceOnUse"><stop offset="0" stop-color="#00cbfa"/><stop offset="1" stop-color="#0068c9"/></linearGradient><linearGradient id="linear-gradient-5" x1="347.32" y1="1999.3" x2="503.98" y2="2127.83" xlink:href="#linear-gradient-4"/><linearGradient id="linear-gradient-6" x1="555.11" y1="2246.49" x2="181.36" y2="2246.49" xlink:href="#linear-gradient-4"/></defs><g id="Layer_2" data-name="Layer 2"><g id="Layer_1-2" data-name="Layer 1"><path class="cls-1" d="M370.5,732.5A362.1,362.1,0,0,1,229.6,36.94,362.1,362.1,0,0,1,511.4,704.06,359.78,359.78,0,0,1,370.5,732.5Z"/><path class="cls-2" d="M370.5,17A353.6,353.6,0,0,1,508.09,696.23,353.6,353.6,0,0,1,232.91,44.77,351.23,351.23,0,0,1,370.5,17m0-17C165.88,0,0,165.88,0,370.5S165.88,741,370.5,741,741,575.12,741,370.5,575.12,0,370.5,0Z"/><g id="Layer_2-2" data-name="Layer 2"><g id="graphics"><path class="cls-3" d="M171.63,513.33v26.61A68.06,68.06,0,0,0,239.68,608H386.73c-42.5,0-76-17.85-76-74.09V398l0,0C308.56,397.86,171.63,393.84,171.63,513.33Z"/><path class="cls-4" d="M310.75,323s0,0,0,0V215.26c0-56.23,33.47-81.34,76-81.34H222.64a51,51,0,0,0-51,51V379.63s0,0,0,0Z"/><path class="cls-5" d="M445.24,136.24h0q-11.81-2.33-54.63-2.32h-3.88c-42.5,0-76,25.11-76,81.34v7.9l0,0h59.57c17.35,0,31.77,14.08,31.42,31.43A30.79,30.79,0,0,1,371,284.77h30.79C521.28,284.73,536.34,160.52,445.24,136.24Z"/><path class="cls-6" d="M552,566.6c48.67-53.24,18.48-136.3-57.77-136.3h-77A30.8,30.8,0,0,1,448,460.47c.34,17.35-14.07,31.42-31.43,31.42H310.79a0,0,0,0,0,0,0v42c0,56.26,33.47,74.09,76,74.09h65.69Q510.52,608,552,566.6Z"/><path class="cls-7" d="M171.63,513.33c0-67.63,47.4-83,119.05-83H494.15c76.25,0,106.45,83,57.77,136.3q41.22-41.67,41.21-100.23,0-44-25-81.95t-65.47-54.61a0,0,0,0,1,0-.05q34.9-33.54,34.91-81.91,0-41.21-26.39-72.9-25.92-31-65.26-38.53s-.05.05,0,.06C536.27,161.2,521,284.79,401.78,284.79H290.68c-78.64-.06-119,23.2-119,94.88Z"/></g></g></g></g></svg>