<svg xmlns="http://www.w3.org/2000/svg" width="26.931" height="24" viewBox="0 0 26.931 24">
  <g id="Group_55" data-name="Group 55" transform="translate(-1061.069 -21)">
    <path id="Path_8" data-name="Path 8" d="M27.931,25.079h0A2.927,2.927,0,0,1,25,28.006H3.927A2.927,2.927,0,0,1,1,25.079V8.1A2.342,2.342,0,0,1,3.342,5.759H15.151l4.742-1.718a.58.58,0,0,1,.742.345l.5,1.373h2.113A2.342,2.342,0,0,1,25.589,8.1V9.272h0a2.342,2.342,0,0,1,2.342,2.342ZM3.342,6.93h0a1.171,1.171,0,1,0,0,2.342H5.469c.008,0,.012-.009.02-.012l6.429-2.33Zm17.024.106-.622-1.712h0l-1.2.435h0L15.316,6.93H15.31L8.847,9.272H21.178ZM24.418,8.1A1.171,1.171,0,0,0,23.247,6.93H21.559l.851,2.342h2.008Zm2.342,12.88H24.418a2.342,2.342,0,0,1,0-4.684H26.76Zm0-1.171V17.468H24.418a1.171,1.171,0,1,0,0,2.342Zm-2.342-1.756h1.171v1.171H24.418Z" transform="translate(1060.069 16.994)" fill="#fff" fill-rule="evenodd"/>
  </g>
</svg>