<?xml version="1.0" encoding="UTF-8" standalone="no"?>
<svg
   width="256px"
   height="256px"
   viewBox="0 0 256 256"
   version="1.1"
   preserveAspectRatio="xMidYMid"
   id="svg68"
   sodipodi:docname="medium.svg"
   inkscape:version="1.1.2 (b8e25be833, 2022-02-05)"
   xmlns:inkscape="http://www.inkscape.org/namespaces/inkscape"
   xmlns:sodipodi="http://sodipodi.sourceforge.net/DTD/sodipodi-0.dtd"
   xmlns="http://www.w3.org/2000/svg"
   xmlns:svg="http://www.w3.org/2000/svg">
  <defs
     id="defs72" />
  <sodipodi:namedview
     id="namedview70"
     pagecolor="#505050"
     bordercolor="#eeeeee"
     borderopacity="1"
     inkscape:pageshadow="0"
     inkscape:pageopacity="0"
     inkscape:pagecheckerboard="0"
     showgrid="false"
     inkscape:zoom="3.2109375"
     inkscape:cx="127.84428"
     inkscape:cy="103.39659"
     inkscape:window-width="1920"
     inkscape:window-height="1000"
     inkscape:window-x="-11"
     inkscape:window-y="-11"
     inkscape:window-maximized="1"
     inkscape:current-layer="g66" />
  <g
     id="g66">
    <path
       id="rect62"
       style="fill:#3c4e5a"
       d="M 0 0 L 0 256 L 256 256 L 256 0 L 0 0 z M 42.865234 57.763672 L 92.724609 57.763672 L 131.26367 142.28516 L 165.14648 57.763672 L 212.67773 57.763672 L 212.67773 60.654297 L 198.94727 73.818359 C 197.76364 74.720591 197.1766 76.202242 197.42188 77.669922 L 197.42188 174.39062 C 197.1766 175.85831 197.76364 177.34191 198.94727 178.24414 L 212.35547 191.4082 L 212.35547 194.29688 L 144.91211 194.29688 L 144.91211 191.4082 L 158.80273 177.92383 C 160.16765 176.5593 160.16797 176.15723 160.16797 174.07031 L 160.16797 95.890625 L 121.54883 193.97656 L 116.33008 193.97656 L 71.367188 95.890625 L 71.367188 161.62891 C 70.992311 164.39273 71.911493 167.17516 73.857422 169.17383 L 91.921875 191.08594 L 91.921875 193.97656 L 40.697266 193.97656 L 40.697266 191.08594 L 58.761719 169.17383 C 60.693479 167.17185 61.55956 164.37096 61.091797 161.62891 L 61.091797 85.617188 C 61.305468 83.506044 60.500237 81.418927 58.923828 79.998047 L 42.865234 60.654297 L 42.865234 57.763672 z " />
  </g>
</svg>
