<svg id="g66" xmlns="http://www.w3.org/2000/svg" width="20" height="20" viewBox="0 0 20 20">
  <path id="rect62" d="M0,0V20H20V0ZM3.349,4.513h3.9l3.011,6.6,2.647-6.6h3.713v.226L15.543,5.767a.313.313,0,0,0-.119.3v7.556a.314.314,0,0,0,.119.3l1.048,1.028v.226H11.321v-.226L12.406,13.9c.107-.107.107-.138.107-.3V7.491L9.5,15.154H9.088L5.576,7.491v5.136a.709.709,0,0,0,.195.589l1.411,1.712v.226h-4v-.226l1.411-1.712a.683.683,0,0,0,.182-.589V6.689A.52.52,0,0,0,4.6,6.25L3.349,4.739Z" fill="#ff0ddf"/>
</svg>
